<svg width="552" height="76" viewBox="0 0 552 76" fill="none" xmlns="http://www.w3.org/2000/svg">
<g id="Group 359">
<rect id="Rectangle 2" x="283" y="13" width="207" height="17" fill="#FFC800"/>
<path id="&#208;&#157;&#208;&#176; &#209;&#130;&#208;&#178;&#208;&#190;&#208;&#181;&#208;&#185; &#209;&#129;&#209;&#130;&#208;&#190;&#209;&#128;&#208;&#190;&#208;&#189;&#208;&#181; &#208;&#178;&#208;&#190;&#208;&#183;&#208;&#188;&#208;&#190;&#208;&#182;&#208;&#189;&#208;&#190;&#209;&#129;&#209;&#130;&#208;&#184; &#208;&#180;&#208;&#187;&#209;&#143; &#209;&#128;&#208;&#190;&#209;&#129;&#209;&#130;&#208;&#176; &#208;&#184; &#208;&#190;&#208;&#177;&#209;&#131;&#209;&#135;&#208;&#181;&#208;&#189;&#208;&#184;&#209;&#143;" d="M16.31 30V19.675H6.195V30H2.45V6.2H6.195V15.615H16.31V6.2H20.055V30H16.31ZM36.9452 30.07C36.0352 30.07 35.3002 29.8367 34.7402 29.37C34.1802 28.88 33.8419 28.145 33.7252 27.165C33.2119 28.1217 32.5469 28.8567 31.7302 29.37C30.9136 29.8833 29.9219 30.14 28.7552 30.14C27.2386 30.14 26.0136 29.7317 25.0802 28.915C24.1702 28.0983 23.7152 26.9317 23.7152 25.415C23.7152 24.4117 23.9019 23.5833 24.2752 22.93C24.6719 22.2767 25.2436 21.7283 25.9902 21.285C26.7369 20.8183 27.6469 20.3867 28.7202 19.99L33.4452 18.24C33.3519 17.4233 33.0136 16.8633 32.4302 16.56C31.8469 16.2567 31.1469 16.105 30.3302 16.105C29.4202 16.105 28.6736 16.2683 28.0902 16.595C27.5069 16.9217 27.1452 17.435 27.0052 18.135H23.9252C24.0886 16.875 24.4736 15.825 25.0802 14.985C25.6869 14.145 26.4569 13.5267 27.3902 13.13C28.3236 12.71 29.3502 12.5 30.4702 12.5C32.4302 12.5 34.0052 13.025 35.1952 14.075C36.3852 15.1017 36.9686 16.7 36.9452 18.87L36.8402 24.96C36.8402 25.59 36.9336 26.0333 37.1202 26.29C37.3302 26.5233 37.6569 26.64 38.1002 26.64H38.6252V30C38.3686 30.0233 38.0886 30.035 37.7852 30.035C37.4819 30.0583 37.2019 30.07 36.9452 30.07ZM27.1802 24.645C27.1802 25.2983 27.4252 25.7883 27.9152 26.115C28.4286 26.4183 29.0936 26.57 29.9102 26.57C30.6802 26.57 31.3802 26.465 32.0102 26.255C32.6402 26.0217 33.1069 25.73 33.4102 25.38L33.4802 20.655L30.3652 21.845C29.2219 22.2883 28.4052 22.7083 27.9152 23.105C27.4252 23.4783 27.1802 23.9917 27.1802 24.645ZM48.4523 12.85H62.3823V16.56H57.2023V30H53.6323V16.56H48.4523V12.85ZM72.6474 30H65.3674V12.85H72.3324C74.1291 12.85 75.5291 13.2467 76.5324 14.04C77.5358 14.8333 78.0374 15.9417 78.0374 17.365C78.0374 18.2283 77.8274 18.975 77.4074 19.605C77.0108 20.2117 76.4741 20.6433 75.7974 20.9C76.6841 21.1333 77.4074 21.5883 77.9674 22.265C78.5274 22.9183 78.8074 23.7817 78.8074 24.855C78.8074 26.535 78.2591 27.8183 77.1624 28.705C76.0891 29.5683 74.5841 30 72.6474 30ZM68.8324 16.175V20.06H72.0174C72.8808 20.06 73.5341 19.9083 73.9774 19.605C74.4208 19.2783 74.6424 18.7767 74.6424 18.1C74.6424 17.4233 74.4441 16.9333 74.0474 16.63C73.6508 16.3267 73.0091 16.175 72.1224 16.175H68.8324ZM68.8324 22.3V26.64H72.1924C73.2891 26.64 74.0941 26.465 74.6074 26.115C75.1208 25.765 75.3774 25.2167 75.3774 24.47C75.3774 23.7 75.1208 23.1517 74.6074 22.825C74.0941 22.475 73.3124 22.3 72.2624 22.3H68.8324ZM89.5379 12.5C91.2646 12.5 92.7579 12.8967 94.0179 13.69C95.3013 14.46 96.2929 15.5217 96.9929 16.875C97.6929 18.205 98.0429 19.71 98.0429 21.39C98.0429 23.07 97.6929 24.5867 96.9929 25.94C96.2929 27.2933 95.3013 28.3667 94.0179 29.16C92.7579 29.9533 91.2646 30.35 89.5379 30.35C87.8113 30.35 86.3063 29.9533 85.0229 29.16C83.7629 28.3667 82.7829 27.2933 82.0829 25.94C81.3829 24.5867 81.0329 23.07 81.0329 21.39C81.0329 19.71 81.3829 18.205 82.0829 16.875C82.7829 15.5217 83.7629 14.46 85.0229 13.69C86.3063 12.8967 87.8113 12.5 89.5379 12.5ZM89.5379 16.35C88.0446 16.35 86.8429 16.8167 85.9329 17.75C85.0463 18.66 84.6029 19.8733 84.6029 21.39C84.6029 22.93 85.0463 24.1667 85.9329 25.1C86.8429 26.0333 88.0446 26.5 89.5379 26.5C91.0313 26.5 92.2213 26.0333 93.1079 25.1C94.0179 24.1667 94.4729 22.93 94.4729 21.39C94.4729 19.8733 94.0179 18.66 93.1079 17.75C92.2213 16.8167 91.0313 16.35 89.5379 16.35ZM116.234 24.54C116.001 25.59 115.569 26.5583 114.939 27.445C114.309 28.3083 113.458 29.0083 112.384 29.545C111.334 30.0817 110.028 30.35 108.464 30.35C106.878 30.35 105.466 29.965 104.229 29.195C103.016 28.425 102.059 27.3633 101.359 26.01C100.683 24.6567 100.344 23.1283 100.344 21.425C100.344 19.6983 100.694 18.17 101.394 16.84C102.094 15.4867 103.051 14.425 104.264 13.655C105.501 12.885 106.924 12.5 108.534 12.5C110.144 12.5 111.556 12.885 112.769 13.655C113.983 14.4017 114.928 15.4517 115.604 16.805C116.281 18.1583 116.619 19.745 116.619 21.565C116.619 21.635 116.608 21.7633 116.584 21.95C116.584 22.1133 116.584 22.23 116.584 22.3H103.879C104.019 23.7233 104.498 24.8317 105.314 25.625C106.154 26.4183 107.228 26.815 108.534 26.815C109.724 26.815 110.681 26.605 111.404 26.185C112.151 25.765 112.688 25.2167 113.014 24.54H116.234ZM108.534 16.035C107.298 16.035 106.283 16.385 105.489 17.085C104.696 17.7617 104.183 18.7183 103.949 19.955H113.049C112.886 18.7883 112.419 17.8433 111.649 17.12C110.903 16.3967 109.864 16.035 108.534 16.035ZM123.42 12.85V24.19L130.84 12.85H134.235V30H130.7V18.52L123.245 30H119.85V12.85H123.42ZM124.995 7.285C125.205 7.845 125.497 8.265 125.87 8.545C126.243 8.825 126.745 8.965 127.375 8.965C128.005 8.965 128.507 8.825 128.88 8.545C129.253 8.265 129.545 7.845 129.755 7.285H132.17C132.077 8.59166 131.633 9.665 130.84 10.505C130.07 11.3217 128.915 11.73 127.375 11.73C125.812 11.73 124.645 11.3217 123.875 10.505C123.105 9.665 122.673 8.59166 122.58 7.285H124.995ZM154.337 12.465C156.414 12.465 158.117 13.0367 159.447 14.18C160.8 15.3 161.652 16.8283 162.002 18.765H158.817C158.584 18.0183 158.105 17.4233 157.382 16.98C156.682 16.5367 155.679 16.315 154.372 16.315C152.902 16.315 151.747 16.7817 150.907 17.715C150.067 18.6483 149.647 19.8617 149.647 21.355C149.647 22.8483 150.067 24.0733 150.907 25.03C151.747 25.9867 152.902 26.465 154.372 26.465C155.679 26.465 156.682 26.2433 157.382 25.8C158.105 25.3333 158.584 24.75 158.817 24.05H162.002C161.652 25.9633 160.8 27.4917 159.447 28.635C158.117 29.755 156.414 30.315 154.337 30.315C152.657 30.315 151.199 29.9183 149.962 29.125C148.725 28.3317 147.769 27.2583 147.092 25.905C146.415 24.5517 146.077 23.035 146.077 21.355C146.077 19.675 146.415 18.17 147.092 16.84C147.769 15.4867 148.725 14.425 149.962 13.655C151.199 12.8617 152.657 12.465 154.337 12.465ZM163.877 12.85H177.807V16.56H172.627V30H169.057V16.56H163.877V12.85ZM187.975 12.5C189.702 12.5 191.195 12.8967 192.455 13.69C193.739 14.46 194.73 15.5217 195.43 16.875C196.13 18.205 196.48 19.71 196.48 21.39C196.48 23.07 196.13 24.5867 195.43 25.94C194.73 27.2933 193.739 28.3667 192.455 29.16C191.195 29.9533 189.702 30.35 187.975 30.35C186.249 30.35 184.744 29.9533 183.46 29.16C182.2 28.3667 181.22 27.2933 180.52 25.94C179.82 24.5867 179.47 23.07 179.47 21.39C179.47 19.71 179.82 18.205 180.52 16.875C181.22 15.5217 182.2 14.46 183.46 13.69C184.744 12.8967 186.249 12.5 187.975 12.5ZM187.975 16.35C186.482 16.35 185.28 16.8167 184.37 17.75C183.484 18.66 183.04 19.8733 183.04 21.39C183.04 22.93 183.484 24.1667 184.37 25.1C185.28 26.0333 186.482 26.5 187.975 26.5C189.469 26.5 190.659 26.0333 191.545 25.1C192.455 24.1667 192.91 22.93 192.91 21.39C192.91 19.8733 192.455 18.66 191.545 17.75C190.659 16.8167 189.469 16.35 187.975 16.35ZM203.157 15.86C203.624 14.8333 204.324 14.0283 205.257 13.445C206.19 12.8383 207.345 12.535 208.722 12.535C210.262 12.535 211.615 12.8967 212.782 13.62C213.949 14.32 214.859 15.3233 215.512 16.63C216.165 17.9367 216.492 19.4883 216.492 21.285C216.492 23.0583 216.165 24.6333 215.512 26.01C214.859 27.3633 213.949 28.425 212.782 29.195C211.639 29.9417 210.297 30.315 208.757 30.315C207.474 30.315 206.377 30.0933 205.467 29.65C204.58 29.1833 203.869 28.4833 203.332 27.55V37H199.762V12.85H203.157V15.86ZM207.987 26.535C209.62 26.535 210.845 26.0567 211.662 25.1C212.502 24.1433 212.922 22.8833 212.922 21.32C212.922 19.7333 212.502 18.5083 211.662 17.645C210.845 16.7583 209.609 16.315 207.952 16.315C206.809 16.315 205.84 16.4783 205.047 16.805C204.277 17.1317 203.705 17.6567 203.332 18.38V24.54C203.705 25.2633 204.277 25.7767 205.047 26.08C205.84 26.3833 206.82 26.535 207.987 26.535ZM227.385 12.5C229.111 12.5 230.605 12.8967 231.865 13.69C233.148 14.46 234.14 15.5217 234.84 16.875C235.54 18.205 235.89 19.71 235.89 21.39C235.89 23.07 235.54 24.5867 234.84 25.94C234.14 27.2933 233.148 28.3667 231.865 29.16C230.605 29.9533 229.111 30.35 227.385 30.35C225.658 30.35 224.153 29.9533 222.87 29.16C221.61 28.3667 220.63 27.2933 219.93 25.94C219.23 24.5867 218.88 23.07 218.88 21.39C218.88 19.71 219.23 18.205 219.93 16.875C220.63 15.5217 221.61 14.46 222.87 13.69C224.153 12.8967 225.658 12.5 227.385 12.5ZM227.385 16.35C225.891 16.35 224.69 16.8167 223.78 17.75C222.893 18.66 222.45 19.8733 222.45 21.39C222.45 22.93 222.893 24.1667 223.78 25.1C224.69 26.0333 225.891 26.5 227.385 26.5C228.878 26.5 230.068 26.0333 230.955 25.1C231.865 24.1667 232.32 22.93 232.32 21.39C232.32 19.8733 231.865 18.66 230.955 17.75C230.068 16.8167 228.878 16.35 227.385 16.35ZM249.776 30V23H242.741V30H239.171V12.85H242.741V19.325H249.776V12.85H253.346V30H249.776ZM272.538 24.54C272.305 25.59 271.873 26.5583 271.243 27.445C270.613 28.3083 269.761 29.0083 268.688 29.545C267.638 30.0817 266.331 30.35 264.768 30.35C263.181 30.35 261.77 29.965 260.533 29.195C259.32 28.425 258.363 27.3633 257.663 26.01C256.986 24.6567 256.648 23.1283 256.648 21.425C256.648 19.6983 256.998 18.17 257.698 16.84C258.398 15.4867 259.355 14.425 260.568 13.655C261.805 12.885 263.228 12.5 264.838 12.5C266.448 12.5 267.86 12.885 269.073 13.655C270.286 14.4017 271.231 15.4517 271.908 16.805C272.585 18.1583 272.923 19.745 272.923 21.565C272.923 21.635 272.911 21.7633 272.888 21.95C272.888 22.1133 272.888 22.23 272.888 22.3H260.183C260.323 23.7233 260.801 24.8317 261.618 25.625C262.458 26.4183 263.531 26.815 264.838 26.815C266.028 26.815 266.985 26.605 267.708 26.185C268.455 25.765 268.991 25.2167 269.318 24.54H272.538ZM264.838 16.035C263.601 16.035 262.586 16.385 261.793 17.085C261 17.7617 260.486 18.7183 260.253 19.955H269.353C269.19 18.7883 268.723 17.8433 267.953 17.12C267.206 16.3967 266.168 16.035 264.838 16.035ZM291.944 30H284.664V12.85H291.629C293.426 12.85 294.826 13.2467 295.829 14.04C296.833 14.8333 297.334 15.9417 297.334 17.365C297.334 18.2283 297.124 18.975 296.704 19.605C296.308 20.2117 295.771 20.6433 295.094 20.9C295.981 21.1333 296.704 21.5883 297.264 22.265C297.824 22.9183 298.104 23.7817 298.104 24.855C298.104 26.535 297.556 27.8183 296.459 28.705C295.386 29.5683 293.881 30 291.944 30ZM288.129 16.175V20.06H291.314C292.178 20.06 292.831 19.9083 293.274 19.605C293.718 19.2783 293.939 18.7767 293.939 18.1C293.939 17.4233 293.741 16.9333 293.344 16.63C292.948 16.3267 292.306 16.175 291.419 16.175H288.129ZM288.129 22.3V26.64H291.489C292.586 26.64 293.391 26.465 293.904 26.115C294.418 25.765 294.674 25.2167 294.674 24.47C294.674 23.7 294.418 23.1517 293.904 22.825C293.391 22.475 292.609 22.3 291.559 22.3H288.129ZM308.835 12.5C310.561 12.5 312.055 12.8967 313.315 13.69C314.598 14.46 315.59 15.5217 316.29 16.875C316.99 18.205 317.34 19.71 317.34 21.39C317.34 23.07 316.99 24.5867 316.29 25.94C315.59 27.2933 314.598 28.3667 313.315 29.16C312.055 29.9533 310.561 30.35 308.835 30.35C307.108 30.35 305.603 29.9533 304.32 29.16C303.06 28.3667 302.08 27.2933 301.38 25.94C300.68 24.5867 300.33 23.07 300.33 21.39C300.33 19.71 300.68 18.205 301.38 16.875C302.08 15.5217 303.06 14.46 304.32 13.69C305.603 12.8967 307.108 12.5 308.835 12.5ZM308.835 16.35C307.341 16.35 306.14 16.8167 305.23 17.75C304.343 18.66 303.9 19.8733 303.9 21.39C303.9 22.93 304.343 24.1667 305.23 25.1C306.14 26.0333 307.341 26.5 308.835 26.5C310.328 26.5 311.518 26.0333 312.405 25.1C313.315 24.1667 313.77 22.93 313.77 21.39C313.77 19.8733 313.315 18.66 312.405 17.75C311.518 16.8167 310.328 16.35 308.835 16.35ZM326.326 26.78C327.4 26.78 328.251 26.5933 328.881 26.22C329.535 25.8467 329.861 25.2633 329.861 24.47C329.861 23.7233 329.593 23.1867 329.056 22.86C328.543 22.51 327.773 22.335 326.746 22.335H324.156V20.095H326.606C327.563 20.095 328.263 19.92 328.706 19.57C329.173 19.1967 329.406 18.695 329.406 18.065C329.406 16.7117 328.403 16.035 326.396 16.035C325.37 16.035 324.541 16.2333 323.911 16.63C323.305 17.0267 322.92 17.61 322.756 18.38H319.711C319.921 16.5367 320.633 15.1017 321.846 14.075C323.06 13.025 324.623 12.5 326.536 12.5C328.426 12.5 329.931 12.9317 331.051 13.795C332.195 14.6583 332.766 15.8833 332.766 17.47C332.766 18.3333 332.533 19.08 332.066 19.71C331.6 20.34 330.993 20.7717 330.246 21.005C331.156 21.215 331.88 21.6583 332.416 22.335C332.976 22.9883 333.256 23.8283 333.256 24.855C333.256 26.045 332.953 27.0483 332.346 27.865C331.763 28.6817 330.958 29.3 329.931 29.72C328.905 30.14 327.75 30.35 326.466 30.35C324.483 30.35 322.885 29.8483 321.671 28.845C320.458 27.8183 319.77 26.3483 319.606 24.435H322.686C322.803 25.2283 323.165 25.8233 323.771 26.22C324.401 26.5933 325.253 26.78 326.326 26.78ZM339.98 30H336.515V12.85H341.275L345.965 22.02L350.655 12.85H355.24V30H351.705V17.75L346.595 27.48H345.09L339.98 17.75V30ZM367.043 12.5C368.769 12.5 370.263 12.8967 371.523 13.69C372.806 14.46 373.798 15.5217 374.498 16.875C375.198 18.205 375.548 19.71 375.548 21.39C375.548 23.07 375.198 24.5867 374.498 25.94C373.798 27.2933 372.806 28.3667 371.523 29.16C370.263 29.9533 368.769 30.35 367.043 30.35C365.316 30.35 363.811 29.9533 362.528 29.16C361.268 28.3667 360.288 27.2933 359.588 25.94C358.888 24.5867 358.538 23.07 358.538 21.39C358.538 19.71 358.888 18.205 359.588 16.875C360.288 15.5217 361.268 14.46 362.528 13.69C363.811 12.8967 365.316 12.5 367.043 12.5ZM367.043 16.35C365.549 16.35 364.348 16.8167 363.438 17.75C362.551 18.66 362.108 19.8733 362.108 21.39C362.108 22.93 362.551 24.1667 363.438 25.1C364.348 26.0333 365.549 26.5 367.043 26.5C368.536 26.5 369.726 26.0333 370.613 25.1C371.523 24.1667 371.978 22.93 371.978 21.39C371.978 19.8733 371.523 18.66 370.613 17.75C369.726 16.8167 368.536 16.35 367.043 16.35ZM380.492 30H376.152L382.627 20.795L376.222 12.85H380.247L386.232 20.795V12.85H389.697V20.795L395.717 12.85H399.742L393.337 20.83L399.812 30H395.437L389.697 21.705V30H386.232V21.705L380.492 30ZM412.779 30V23H405.744V30H402.174V12.85H405.744V19.325H412.779V12.85H416.349V30H412.779ZM428.156 12.5C429.883 12.5 431.376 12.8967 432.636 13.69C433.919 14.46 434.911 15.5217 435.611 16.875C436.311 18.205 436.661 19.71 436.661 21.39C436.661 23.07 436.311 24.5867 435.611 25.94C434.911 27.2933 433.919 28.3667 432.636 29.16C431.376 29.9533 429.883 30.35 428.156 30.35C426.429 30.35 424.924 29.9533 423.641 29.16C422.381 28.3667 421.401 27.2933 420.701 25.94C420.001 24.5867 419.651 23.07 419.651 21.39C419.651 19.71 420.001 18.205 420.701 16.875C421.401 15.5217 422.381 14.46 423.641 13.69C424.924 12.8967 426.429 12.5 428.156 12.5ZM428.156 16.35C426.663 16.35 425.461 16.8167 424.551 17.75C423.664 18.66 423.221 19.8733 423.221 21.39C423.221 22.93 423.664 24.1667 424.551 25.1C425.461 26.0333 426.663 26.5 428.156 26.5C429.649 26.5 430.839 26.0333 431.726 25.1C432.636 24.1667 433.091 22.93 433.091 21.39C433.091 19.8733 432.636 18.66 431.726 17.75C430.839 16.8167 429.649 16.35 428.156 16.35ZM447.223 12.465C449.299 12.465 451.003 13.0367 452.333 14.18C453.686 15.3 454.538 16.8283 454.888 18.765H451.703C451.469 18.0183 450.991 17.4233 450.268 16.98C449.568 16.5367 448.564 16.315 447.258 16.315C445.788 16.315 444.633 16.7817 443.793 17.715C442.953 18.6483 442.533 19.8617 442.533 21.355C442.533 22.8483 442.953 24.0733 443.793 25.03C444.633 25.9867 445.788 26.465 447.258 26.465C448.564 26.465 449.568 26.2433 450.268 25.8C450.991 25.3333 451.469 24.75 451.703 24.05H454.888C454.538 25.9633 453.686 27.4917 452.333 28.635C451.003 29.755 449.299 30.315 447.223 30.315C445.543 30.315 444.084 29.9183 442.848 29.125C441.611 28.3317 440.654 27.2583 439.978 25.905C439.301 24.5517 438.963 23.035 438.963 21.355C438.963 19.675 439.301 18.17 439.978 16.84C440.654 15.4867 441.611 14.425 442.848 13.655C444.084 12.8617 445.543 12.465 447.223 12.465ZM456.763 12.85H470.693V16.56H465.513V30H461.943V16.56H456.763V12.85ZM477.248 12.85V24.19L484.668 12.85H488.063V30H484.528V18.52L477.073 30H473.678V12.85H477.248ZM0.175 72.41V64.29H1.785C2.85833 63.2167 3.65167 61.5833 4.165 59.39C4.67833 57.1733 4.94667 54.3267 4.97 50.85H16.135V64.29H18.69V72.41H15.26V68H3.605V72.41H0.175ZM7.875 54.525C7.82833 56.5783 7.61833 58.41 7.245 60.02C6.895 61.63 6.31167 63.0533 5.495 64.29H12.565V54.525H7.875ZM19.6973 64.22C19.8373 64.2433 20.0007 64.2667 20.1873 64.29C20.3973 64.3133 20.619 64.325 20.8523 64.325C21.599 64.325 22.1473 63.9167 22.4973 63.1C22.8473 62.26 23.1157 60.9767 23.3023 59.25C23.419 58.1533 23.5123 56.905 23.5823 55.505C23.6757 54.105 23.7457 52.5533 23.7923 50.85H34.9923V68H31.4573V54.525H26.7673C26.744 55.3883 26.6973 56.2983 26.6273 57.255C26.5807 58.1883 26.5223 59.0633 26.4523 59.88C26.289 61.8867 26.0323 63.5083 25.6823 64.745C25.3323 65.9583 24.8423 66.845 24.2123 67.405C23.5823 67.9417 22.7423 68.21 21.6923 68.21C21.319 68.21 20.9573 68.1867 20.6073 68.14C20.2573 68.0933 19.954 68.0233 19.6973 67.93V64.22ZM37.8191 68L43.3141 61.21C42.3808 61.14 41.5408 60.93 40.7941 60.58C40.0475 60.2067 39.4525 59.6583 39.0091 58.935C38.5891 58.2117 38.3791 57.29 38.3791 56.17C38.3791 55.0033 38.6475 54.035 39.1841 53.265C39.7441 52.4717 40.4908 51.8767 41.4241 51.48C42.3808 51.06 43.4308 50.85 44.5741 50.85H51.5741V68H48.0391V61.21H47.3741L42.1241 68H37.8191ZM44.9941 58.865H48.0391V54.42H45.0291C44.0258 54.42 43.2558 54.5833 42.7191 54.91C42.1825 55.2367 41.9141 55.8083 41.9141 56.625C41.9141 57.3717 42.1941 57.9317 42.7541 58.305C43.3141 58.6783 44.0608 58.865 44.9941 58.865ZM67.737 53.86C68.2037 52.8333 68.9037 52.0283 69.837 51.445C70.7704 50.8383 71.9254 50.535 73.302 50.535C74.842 50.535 76.1954 50.8967 77.362 51.62C78.5287 52.32 79.4387 53.3233 80.092 54.63C80.7454 55.9367 81.072 57.4883 81.072 59.285C81.072 61.0583 80.7454 62.6333 80.092 64.01C79.4387 65.3633 78.5287 66.425 77.362 67.195C76.2187 67.9417 74.877 68.315 73.337 68.315C72.0537 68.315 70.957 68.0933 70.047 67.65C69.1604 67.1833 68.4487 66.4833 67.912 65.55V75H64.342V50.85H67.737V53.86ZM72.567 64.535C74.2004 64.535 75.4254 64.0567 76.242 63.1C77.082 62.1433 77.502 60.8833 77.502 59.32C77.502 57.7333 77.082 56.5083 76.242 55.645C75.4254 54.7583 74.1887 54.315 72.532 54.315C71.3887 54.315 70.4204 54.4783 69.627 54.805C68.857 55.1317 68.2854 55.6567 67.912 56.38V62.54C68.2854 63.2633 68.857 63.7767 69.627 64.08C70.4204 64.3833 71.4004 64.535 72.567 64.535ZM91.9647 50.5C93.6914 50.5 95.1847 50.8967 96.4447 51.69C97.728 52.46 98.7197 53.5217 99.4197 54.875C100.12 56.205 100.47 57.71 100.47 59.39C100.47 61.07 100.12 62.5867 99.4197 63.94C98.7197 65.2933 97.728 66.3667 96.4447 67.16C95.1847 67.9533 93.6914 68.35 91.9647 68.35C90.238 68.35 88.733 67.9533 87.4497 67.16C86.1897 66.3667 85.2097 65.2933 84.5097 63.94C83.8097 62.5867 83.4597 61.07 83.4597 59.39C83.4597 57.71 83.8097 56.205 84.5097 54.875C85.2097 53.5217 86.1897 52.46 87.4497 51.69C88.733 50.8967 90.238 50.5 91.9647 50.5ZM91.9647 54.35C90.4714 54.35 89.2697 54.8167 88.3597 55.75C87.473 56.66 87.0297 57.8733 87.0297 59.39C87.0297 60.93 87.473 62.1667 88.3597 63.1C89.2697 64.0333 90.4714 64.5 91.9647 64.5C93.458 64.5 94.648 64.0333 95.5347 63.1C96.4447 62.1667 96.8997 60.93 96.8997 59.39C96.8997 57.8733 96.4447 56.66 95.5347 55.75C94.648 54.8167 93.458 54.35 91.9647 54.35ZM111.031 50.465C113.108 50.465 114.811 51.0367 116.141 52.18C117.495 53.3 118.346 54.8283 118.696 56.765H115.511C115.278 56.0183 114.8 55.4233 114.076 54.98C113.376 54.5367 112.373 54.315 111.066 54.315C109.596 54.315 108.441 54.7817 107.601 55.715C106.761 56.6483 106.341 57.8617 106.341 59.355C106.341 60.8483 106.761 62.0733 107.601 63.03C108.441 63.9867 109.596 64.465 111.066 64.465C112.373 64.465 113.376 64.2433 114.076 63.8C114.8 63.3333 115.278 62.75 115.511 62.05H118.696C118.346 63.9633 117.495 65.4917 116.141 66.635C114.811 67.755 113.108 68.315 111.031 68.315C109.351 68.315 107.893 67.9183 106.656 67.125C105.42 66.3317 104.463 65.2583 103.786 63.905C103.11 62.5517 102.771 61.035 102.771 59.355C102.771 57.675 103.11 56.17 103.786 54.84C104.463 53.4867 105.42 52.425 106.656 51.655C107.893 50.8617 109.351 50.465 111.031 50.465ZM120.571 50.85H134.501V54.56H129.321V68H125.751V54.56H120.571V50.85ZM149.601 68.07C148.691 68.07 147.956 67.8367 147.396 67.37C146.836 66.88 146.498 66.145 146.381 65.165C145.868 66.1217 145.203 66.8567 144.386 67.37C143.57 67.8833 142.578 68.14 141.411 68.14C139.895 68.14 138.67 67.7317 137.736 66.915C136.826 66.0983 136.371 64.9317 136.371 63.415C136.371 62.4117 136.558 61.5833 136.931 60.93C137.328 60.2767 137.9 59.7283 138.646 59.285C139.393 58.8183 140.303 58.3867 141.376 57.99L146.101 56.24C146.008 55.4233 145.67 54.8633 145.086 54.56C144.503 54.2567 143.803 54.105 142.986 54.105C142.076 54.105 141.33 54.2683 140.746 54.595C140.163 54.9217 139.801 55.435 139.661 56.135H136.581C136.745 54.875 137.13 53.825 137.736 52.985C138.343 52.145 139.113 51.5267 140.046 51.13C140.98 50.71 142.006 50.5 143.126 50.5C145.086 50.5 146.661 51.025 147.851 52.075C149.041 53.1017 149.625 54.7 149.601 56.87L149.496 62.96C149.496 63.59 149.59 64.0333 149.776 64.29C149.986 64.5233 150.313 64.64 150.756 64.64H151.281V68C151.025 68.0233 150.745 68.035 150.441 68.035C150.138 68.0583 149.858 68.07 149.601 68.07ZM139.836 62.645C139.836 63.2983 140.081 63.7883 140.571 64.115C141.085 64.4183 141.75 64.57 142.566 64.57C143.336 64.57 144.036 64.465 144.666 64.255C145.296 64.0217 145.763 63.73 146.066 63.38L146.136 58.655L143.021 59.845C141.878 60.2883 141.061 60.7083 140.571 61.105C140.081 61.4783 139.836 61.9917 139.836 62.645ZM165.974 50.85V62.19L173.394 50.85H176.789V68H173.254V56.52L165.799 68H162.404V50.85H165.974ZM197.136 50.5C198.862 50.5 200.356 50.8967 201.616 51.69C202.899 52.46 203.891 53.5217 204.591 54.875C205.291 56.205 205.641 57.71 205.641 59.39C205.641 61.07 205.291 62.5867 204.591 63.94C203.891 65.2933 202.899 66.3667 201.616 67.16C200.356 67.9533 198.862 68.35 197.136 68.35C195.409 68.35 193.904 67.9533 192.621 67.16C191.361 66.3667 190.381 65.2933 189.681 63.94C188.981 62.5867 188.631 61.07 188.631 59.39C188.631 57.71 188.981 56.205 189.681 54.875C190.381 53.5217 191.361 52.46 192.621 51.69C193.904 50.8967 195.409 50.5 197.136 50.5ZM197.136 54.35C195.642 54.35 194.441 54.8167 193.531 55.75C192.644 56.66 192.201 57.8733 192.201 59.39C192.201 60.93 192.644 62.1667 193.531 63.1C194.441 64.0333 195.642 64.5 197.136 64.5C198.629 64.5 199.819 64.0333 200.706 63.1C201.616 62.1667 202.071 60.93 202.071 59.39C202.071 57.8733 201.616 56.66 200.706 55.75C199.819 54.8167 198.629 54.35 197.136 54.35ZM217.742 51.27C219.259 51.27 220.565 51.6083 221.662 52.285C222.782 52.9383 223.645 53.8833 224.252 55.12C224.882 56.3567 225.197 57.8267 225.197 59.53C225.197 61.2333 224.859 62.75 224.182 64.08C223.529 65.41 222.572 66.46 221.312 67.23C220.052 67.9767 218.524 68.35 216.727 68.35C214.954 68.35 213.425 67.9417 212.142 67.125C210.859 66.3083 209.879 65.095 209.202 63.485C208.525 61.8517 208.187 59.8217 208.187 57.395C208.187 54.8283 208.432 52.635 208.922 50.815C209.412 48.9717 210.24 47.5133 211.407 46.44C212.574 45.3433 214.172 44.655 216.202 44.375L223.622 43.36V47.07L216.762 48.12C215.572 48.3067 214.627 48.6567 213.927 49.17C213.227 49.66 212.714 50.3367 212.387 51.2C212.084 52.0633 211.874 53.125 211.757 54.385C212.41 53.335 213.25 52.5533 214.277 52.04C215.304 51.5267 216.459 51.27 217.742 51.27ZM216.937 54.805C215.864 54.805 214.884 54.9683 213.997 55.295C213.134 55.5983 212.434 56.0883 211.897 56.765V58.725C211.897 60.5917 212.317 62.0383 213.157 63.065C214.02 64.0683 215.21 64.57 216.727 64.57C218.244 64.57 219.434 64.1383 220.297 63.275C221.184 62.3883 221.627 61.14 221.627 59.53C221.627 57.92 221.207 56.73 220.367 55.96C219.527 55.19 218.384 54.805 216.937 54.805ZM232.923 69.295L233.308 68H232.258L226.553 50.85H230.403L234.638 63.975L238.908 50.85H242.268L235.723 70.415C235.139 72.1183 234.451 73.3433 233.658 74.09C232.864 74.8367 231.849 75.21 230.613 75.21C230.099 75.21 229.644 75.1633 229.248 75.07C228.851 75 228.489 74.9183 228.163 74.825V71.185C228.466 71.2783 228.781 71.3483 229.108 71.395C229.434 71.4417 229.784 71.465 230.158 71.465C230.834 71.465 231.394 71.3017 231.838 70.975C232.304 70.6483 232.666 70.0883 232.923 69.295ZM254.471 68V60.125C254.074 60.8483 253.514 61.4433 252.791 61.91C252.067 62.3533 251.134 62.575 249.991 62.575C248.147 62.575 246.724 62.0617 245.721 61.035C244.717 59.985 244.216 58.5383 244.216 56.695V50.85H247.786V55.645C247.786 56.7883 248.077 57.6283 248.661 58.165C249.267 58.6783 250.119 58.935 251.216 58.935C251.916 58.935 252.546 58.8533 253.106 58.69C253.666 58.5267 254.121 58.2933 254.471 57.99V50.85H258.041V68H254.471ZM277.221 62.54C276.987 63.59 276.556 64.5583 275.926 65.445C275.296 66.3083 274.444 67.0083 273.371 67.545C272.321 68.0817 271.014 68.35 269.451 68.35C267.864 68.35 266.452 67.965 265.216 67.195C264.002 66.425 263.046 65.3633 262.346 64.01C261.669 62.6567 261.331 61.1283 261.331 59.425C261.331 57.6983 261.681 56.17 262.381 54.84C263.081 53.4867 264.037 52.425 265.251 51.655C266.487 50.885 267.911 50.5 269.521 50.5C271.131 50.5 272.542 50.885 273.756 51.655C274.969 52.4017 275.914 53.4517 276.591 54.805C277.267 56.1583 277.606 57.745 277.606 59.565C277.606 59.635 277.594 59.7633 277.571 59.95C277.571 60.1133 277.571 60.23 277.571 60.3H264.866C265.006 61.7233 265.484 62.8317 266.301 63.625C267.141 64.4183 268.214 64.815 269.521 64.815C270.711 64.815 271.667 64.605 272.391 64.185C273.137 63.765 273.674 63.2167 274.001 62.54H277.221ZM269.521 54.035C268.284 54.035 267.269 54.385 266.476 55.085C265.682 55.7617 265.169 56.7183 264.936 57.955H274.036C273.872 56.7883 273.406 55.8433 272.636 55.12C271.889 54.3967 270.851 54.035 269.521 54.035ZM291.441 68V61H284.406V68H280.836V50.85H284.406V57.325H291.441V50.85H295.011V68H291.441ZM302.863 50.85V62.19L310.283 50.85H313.678V68H310.143V56.52L302.688 68H299.293V50.85H302.863ZM316.554 68L322.049 61.21C321.116 61.14 320.276 60.93 319.529 60.58C318.783 60.2067 318.188 59.6583 317.744 58.935C317.324 58.2117 317.114 57.29 317.114 56.17C317.114 55.0033 317.383 54.035 317.919 53.265C318.479 52.4717 319.226 51.8767 320.159 51.48C321.116 51.06 322.166 50.85 323.309 50.85H330.309V68H326.774V61.21H326.109L320.859 68H316.554ZM323.729 58.865H326.774V54.42H323.764C322.761 54.42 321.991 54.5833 321.454 54.91C320.918 55.2367 320.649 55.8083 320.649 56.625C320.649 57.3717 320.929 57.9317 321.489 58.305C322.049 58.6783 322.796 58.865 323.729 58.865Z" fill="black"/>
</g>
</svg>
